<?xml version="1.0" encoding="utf-8"?>
<!-- Generator: Adobe Illustrator 27.6.1, SVG Export Plug-In . SVG Version: 6.00 Build 0)  -->
<svg version="1.1" id="Layer_1" xmlns="http://www.w3.org/2000/svg" xmlns:xlink="http://www.w3.org/1999/xlink" x="0px" y="0px"
	 viewBox="0 0 60 20" style="enable-background:new 0 0 60 20;" xml:space="preserve">
<style type="text/css">
	.st0{fill:#C8F016;}
</style>
<path class="st0" d="M4.6,18.4c-1.8,0-3.7-1-3.7-3.6c0-3.4,2.4-4.9,4.6-4.9c0.9,0,1.9,0.3,2.5,0.8l0.3-0.2c-0.3-1-0.9-2-2.7-2
	c-1.9,0-3.3,1-3.6,1.5L1.6,6.7c0.8-0.9,2.6-1.7,4.8-1.7c2.7,0,6,0.8,5.9,6.3c0,1,0.1,3.9,0.3,6.8H8.1c0-0.2,0.6-1.5,0.8-2H8.5
	C7.7,18.2,5.5,18.4,4.6,18.4z M6.2,15.6c1.9,0,2.1-1.4,2.1-3c-0.5-0.1-0.9-0.2-1.3-0.2c-1.3,0-2.3,0.5-2.3,1.8
	C4.6,15,5.3,15.6,6.2,15.6z"/>
<path class="st0" d="M21.5,9.2L20,18.2H16c-1.3-4.6-2-8.2-4-12.9H17l0.8,8.9h0.4l1.7-8.9h3.8l1.4,8.9h0.4l0.8-8.9h5.1
	c-2,4.6-2.6,8.2-4,12.9h-4l-1.5-8.9H21.5z"/>
<path class="st0" d="M36.3,18.4c-1.8,0-4.1-1.1-4.1-4.3c0-1.5,0.3-5.2-0.1-8.9h4.4C36,9,35,14.8,37.3,14.8c1.5,0,2.3-0.6,2.3-5.2
	c0,0,0-0.9-0.4-4.3h4.5c-0.4,4.6-0.4,8.2,0,12.9h-4.8c0.4-0.5,1.2-1.8,1.5-3.4H40C39.7,16,38.8,18.4,36.3,18.4z"/>
<path class="st0" d="M56.3,18.4c-2.6,0-4.6-1.4-4.6-5.2c0-1.4,0-3.6,0-5.1h-1V5.3h0.2c2,0,1.9-1.9,2.1-3.7h3
	c-0.1,1.6-0.1,2.3-0.2,3.7h2.5v2.9h-2.6c0,0.1,0,0.1,0,0.1l0,0.3c0,0.1,0,1.8,0,1.9c-0.1,2,0,4.5,1.4,4.5c0.5,0,1-0.2,1.6-0.9
	l0.4,3.4C58.3,18.3,57.1,18.4,56.3,18.4z"/>
<path class="st0" d="M49.6,6.5c-0.5,0.5-1.3,0.7-2.1,0.7c-0.9,0-1.6-0.3-2.1-0.7c0.3,4.1,0.2,7.4-0.1,11.7h4.4
	C49.4,14,49.4,10.6,49.6,6.5z"/>
<g>
	<path class="st0" d="M48.2,2.5c0,0.1,0,0.2-0.1,0.3c-0.1,0.2-0.2,0.5-0.4,0.8c0,0,0,0.1,0,0.1s0.1,0,0.1,0c0,0,0.1,0,0.1,0
		c0.1-0.1,0.2-0.2,0.2-0.3c0.1-0.1,0.2-0.3,0.3-0.4c0.2-0.3,0.7-0.3,1-0.1c0.3,0.3,0.2,0.7,0,1C49.3,3.9,49.1,4,49,4
		c-0.3,0-0.6,0.1-0.8,0.1c0,0-0.1,0-0.1,0c0,0,0,0.1,0,0.1s0,0.1,0.1,0.1c0.1,0,0.3,0,0.4,0c0.2,0,0.4,0,0.6,0.1
		c0.2,0.1,0.4,0.2,0.5,0.4c0.1,0.3,0,0.6-0.2,0.8c-0.3,0.2-0.7,0.2-1-0.2c-0.2-0.2-0.3-0.5-0.5-0.7c0-0.1-0.1-0.1-0.2,0
		c0,0-0.1,0.1,0,0.1C47.8,5,48,5.3,48.1,5.6c0.2,0.4,0,0.8-0.4,0.9c-0.4,0.1-0.8-0.1-0.8-0.5c0-0.2,0-0.3,0.1-0.4
		C47,5.3,47.2,5,47.3,4.8c0-0.1,0-0.1,0-0.2c0,0-0.1,0-0.1,0c-0.2,0.2-0.3,0.5-0.5,0.7c-0.1,0.2-0.3,0.3-0.6,0.3
		c-0.5,0-0.8-0.5-0.6-0.9c0.1-0.2,0.3-0.4,0.6-0.4c0.3,0,0.6,0,0.8-0.1C47,4.3,47,4.2,47,4.2c0-0.1,0-0.1-0.1-0.1
		C46.6,4,46.3,4,46,4c-0.3,0-0.6-0.3-0.6-0.6c0-0.4,0.3-0.7,0.6-0.7c0.3,0,0.5,0.1,0.6,0.3c0.2,0.2,0.3,0.5,0.5,0.7
		c0,0,0.1,0.1,0.2,0c0,0,0.1-0.1,0-0.1C47.2,3.4,47.1,3.2,47,3c0-0.1-0.1-0.2-0.1-0.3c0-0.3,0.1-0.6,0.4-0.7c0.3-0.1,0.6,0,0.8,0.2
		C48.1,2.2,48.2,2.4,48.2,2.5z"/>
</g>
</svg>
